<svg width="47" height="21" viewBox="0 0 47 21" fill="none" xmlns="http://www.w3.org/2000/svg">
<path fill-rule="evenodd" clip-rule="evenodd" d="M4.62811 3.02854V6.3584H4.02673C2.35754 6.3584 1 7.69567 1 9.33905V11.7829C1 13.4263 2.35754 14.7636 4.02673 14.7636H4.62811V18.0935C4.62811 19.2116 5.55212 20.1213 6.68851 20.1213H11.1049C12.2406 20.1213 13.1646 19.2116 13.1646 18.0935V13.8704H33.6547V18.0935C33.6547 19.2116 34.5787 20.1213 35.7151 20.1213H40.1315C41.2672 20.1213 42.1919 19.2116 42.1919 18.0935V14.7636H42.7924C44.4616 14.7636 45.8199 13.4263 45.8199 11.7829V9.33905C45.8199 7.69567 44.4616 6.3584 42.7924 6.3584H42.1919V3.02854C42.1919 1.90972 41.2672 1 40.1315 1H35.7151C34.5787 1 33.6547 1.90972 33.6547 3.02854V7.25159H13.1646V3.02854C13.1646 1.90972 12.2406 1 11.1049 1H6.68851C5.55212 1 4.62811 1.90972 4.62811 3.02854ZM6.68851 2.26038C6.25789 2.26038 5.90829 2.6053 5.90829 3.02854V6.98294L5.90831 6.98859V14.1334L5.90829 14.139V18.0935C5.90829 18.5167 6.25789 18.8616 6.68851 18.8616H11.1049C11.5348 18.8616 11.8851 18.5167 11.8851 18.0935V3.02854C11.8851 2.6053 11.5348 2.26038 11.1049 2.26038H6.68851ZM42.1919 13.5032V7.61878H42.7924C43.7558 7.61878 44.5397 8.39053 44.5397 9.33905V11.7829C44.5397 12.7314 43.7558 13.5032 42.7924 13.5032H42.1919ZM40.9117 6.97385V3.02854C40.9117 2.6053 40.5621 2.26038 40.1315 2.26038H35.7151C35.2845 2.26038 34.9349 2.6053 34.9349 3.02854V7.87597L34.9349 7.88178V13.2402L34.9349 13.246V18.0935C34.9349 18.5167 35.2845 18.8616 35.7151 18.8616H40.1315C40.5621 18.8616 40.9117 18.5167 40.9117 18.0935V14.1481C40.9116 14.1432 40.9116 14.1383 40.9116 14.1334V6.98859C40.9116 6.98366 40.9116 6.97875 40.9117 6.97385ZM4.02673 7.61878H4.62811V13.5032H4.02673C3.06332 13.5032 2.28018 12.7314 2.28018 11.7829V9.33905C2.28018 8.39053 3.06332 7.61878 4.02673 7.61878ZM33.6548 12.61V8.51197H13.1646V12.61H33.6548Z" fill="#515665" stroke="#515665" stroke-width="0.5"/>
</svg>
