<svg width="45" height="20" viewBox="0 0 45 20" xmlns="http://www.w3.org/2000/svg">
<path fill-rule="evenodd" clip-rule="evenodd" d="M12.1646 11.61H32.6548V7.51197H12.1646V11.61ZM33.2948 12.8704H11.5253C11.1713 12.8704 10.8852 12.588 10.8852 12.2402V6.88178C10.8852 6.53399 11.1713 6.25159 11.5253 6.25159H33.2948C33.6481 6.25159 33.9349 6.53399 33.9349 6.88178V12.2402C33.9349 12.588 33.6481 12.8704 33.2948 12.8704Z"/>
<path fill-rule="evenodd" clip-rule="evenodd" d="M5.68851 1.26038C5.25789 1.26038 4.90829 1.6053 4.90829 2.02854V17.0935C4.90829 17.5167 5.25789 17.8616 5.68851 17.8616H10.1049C10.5348 17.8616 10.8851 17.5167 10.8851 17.0935V2.02854C10.8851 1.6053 10.5348 1.26038 10.1049 1.26038H5.68851ZM10.1049 19.1213H5.68851C4.55212 19.1213 3.62811 18.2116 3.62811 17.0935V2.02854C3.62811 0.909716 4.55212 0 5.68851 0H10.1049C11.2406 0 12.1646 0.909716 12.1646 2.02854V17.0935C12.1646 18.2116 11.2406 19.1213 10.1049 19.1213Z"/>
<path fill-rule="evenodd" clip-rule="evenodd" d="M34.7151 1.26038C34.2845 1.26038 33.9349 1.6053 33.9349 2.02854V17.0935C33.9349 17.5167 34.2845 17.8616 34.7151 17.8616H39.1315C39.5621 17.8616 39.9117 17.5167 39.9117 17.0935V2.02854C39.9117 1.6053 39.5621 1.26038 39.1315 1.26038H34.7151ZM39.1315 19.1213H34.7151C33.5787 19.1213 32.6547 18.2116 32.6547 17.0935V2.02854C32.6547 0.909716 33.5787 0 34.7151 0H39.1315C40.2672 0 41.1919 0.909716 41.1919 2.02854V17.0935C41.1919 18.2116 40.2672 19.1213 39.1315 19.1213Z"/>
<path fill-rule="evenodd" clip-rule="evenodd" d="M3.02673 6.61878C2.06332 6.61878 1.28018 7.39053 1.28018 8.33905V10.7829C1.28018 11.7314 2.06332 12.5032 3.02673 12.5032H3.62814V6.61878H3.02673ZM4.26823 13.7636H3.02673C1.35754 13.7636 0 12.4263 0 10.7829V8.33905C0 6.69567 1.35754 5.3584 3.02673 5.3584H4.26823C4.62148 5.3584 4.90831 5.6408 4.90831 5.98859V13.1334C4.90831 13.4812 4.62148 13.7636 4.26823 13.7636Z"/>
<path fill-rule="evenodd" clip-rule="evenodd" d="M41.1917 12.5032H41.7924C42.7558 12.5032 43.5397 11.7314 43.5397 10.7829V8.33905C43.5397 7.39053 42.7558 6.61878 41.7924 6.61878H41.1917V12.5032ZM41.7924 13.7636H40.5516C40.1977 13.7636 39.9116 13.4812 39.9116 13.1334V5.98859C39.9116 5.6408 40.1977 5.3584 40.5516 5.3584H41.7924C43.4616 5.3584 44.8199 6.69567 44.8199 8.33905V10.7829C44.8199 12.4263 43.4616 13.7636 41.7924 13.7636Z"/>
</svg>
