<svg width="40" height="40" viewBox="0 0 40 40" xmlns="http://www.w3.org/2000/svg">
<path fill-rule="evenodd" clip-rule="evenodd" d="M29.7233 23.0755H10.4801C10.1672 23.0755 9.91431 22.822 9.91431 22.5097V17.6987C9.91431 17.3865 10.1672 17.1329 10.4801 17.1329H29.7233C30.0356 17.1329 30.2891 17.3865 30.2891 17.6987V22.5097C30.2891 22.822 30.0356 23.0755 29.7233 23.0755Z"/>
<path fill-rule="evenodd" clip-rule="evenodd" d="M9.22443 28.6878H5.32056C4.31604 28.6878 3.49927 27.871 3.49927 26.8671V13.3413C3.49927 12.3368 4.31604 11.52 5.32056 11.52H9.22443C10.2283 11.52 11.0451 12.3368 11.0451 13.3413V26.8671C11.0451 27.871 10.2283 28.6878 9.22443 28.6878Z"/>
<path fill-rule="evenodd" clip-rule="evenodd" d="M34.8826 28.6878H30.9788C29.9742 28.6878 29.1575 27.871 29.1575 26.8671V13.3413C29.1575 12.3368 29.9742 11.52 30.9788 11.52H34.8826C35.8865 11.52 36.7039 12.3368 36.7039 13.3413V26.8671C36.7039 27.871 35.8865 28.6878 34.8826 28.6878Z"/>
<path fill-rule="evenodd" clip-rule="evenodd" d="M4.06514 23.8774H2.96772C1.49224 23.8774 0.292236 22.6767 0.292236 21.2013V19.0071C0.292236 17.5316 1.49224 16.3309 2.96772 16.3309H4.06514C4.3774 16.3309 4.63095 16.5845 4.63095 16.8967V23.3116C4.63095 23.6238 4.3774 23.8774 4.06514 23.8774Z"/>
<path fill-rule="evenodd" clip-rule="evenodd" d="M37.2348 23.8774H36.1381C35.8252 23.8774 35.5723 23.6238 35.5723 23.3116V16.8967C35.5723 16.5845 35.8252 16.3309 36.1381 16.3309H37.2348C38.7103 16.3309 39.911 17.5316 39.911 19.0071V21.2013C39.911 22.6767 38.7103 23.8774 37.2348 23.8774Z"/>
</svg>
