<svg width="40" height="40" viewBox="0 0 40 40" xmlns="http://www.w3.org/2000/svg">
<path d="M14.9999 19.5834C13.8499 19.5834 12.9166 20.5167 12.9166 21.6667C12.9166 22.8167 13.8499 23.75 14.9999 23.75C16.1499 23.75 17.0833 22.8167 17.0833 21.6667C17.0833 20.5167 16.1499 19.5834 14.9999 19.5834ZM24.9999 19.5834C23.8499 19.5834 22.9166 20.5167 22.9166 21.6667C22.9166 22.8167 23.8499 23.75 24.9999 23.75C26.1499 23.75 27.0833 22.8167 27.0833 21.6667C27.0833 20.5167 26.1499 19.5834 24.9999 19.5834ZM19.9999 3.33337C10.7916 3.33337 3.33325 10.7917 3.33325 20C3.33325 29.2084 10.7916 36.6667 19.9999 36.6667C29.2083 36.6667 36.6666 29.2084 36.6666 20C36.6666 10.7917 29.2083 3.33337 19.9999 3.33337ZM19.9999 33.3334C12.6499 33.3334 6.66659 27.35 6.66659 20C6.66659 19.5167 6.69992 19.0417 6.74992 18.575C10.6749 16.8334 13.8083 13.6167 15.4333 9.62504C18.4499 13.875 23.4083 16.6667 29.0249 16.6667C30.3166 16.6667 31.5749 16.5084 32.7749 16.225C33.1333 17.425 33.3333 18.6917 33.3333 20C33.3333 27.35 27.3499 33.3334 19.9999 33.3334Z"/>
</svg>
