<svg width="40" height="40" viewBox="0 0 40 40" xmlns="http://www.w3.org/2000/svg">
<path fill-rule="evenodd" clip-rule="evenodd" d="M26.1999 34.6111C25.3737 34.6111 24.6697 34.0297 24.526 33.2283C24.5199 33.1938 24.518 33.1588 24.5213 33.1238C24.9211 28.4866 24.1085 23.9557 22.106 19.6563C22.0915 19.6255 22.0812 19.5923 22.0751 19.5587C21.9122 18.65 22.531 17.7805 23.455 17.6203L26.3932 17.1107C26.4915 17.0937 26.5912 17.085 26.6904 17.085C27.5166 17.085 28.2206 17.6668 28.3643 18.4678C28.3704 18.5018 28.3722 18.5368 28.3694 18.5709C27.9777 23.256 28.7902 27.7873 30.7838 32.0388C30.7988 32.0701 30.8091 32.1033 30.8156 32.1378C30.9785 33.046 30.3593 33.9156 29.4353 34.0757L26.4971 34.5853C26.3988 34.6023 26.2991 34.6111 26.1999 34.6111Z"/>
<path fill-rule="evenodd" clip-rule="evenodd" d="M24.9948 18.1667C24.7992 18.1667 24.6264 18.0286 24.5913 17.833L23.3027 10.646C23.2634 10.4265 23.4122 10.2175 23.6355 10.1788C23.8592 10.1401 24.0717 10.2865 24.1111 10.5061L25.3997 17.693C25.439 17.9121 25.2897 18.1216 25.0664 18.1602C25.0426 18.1644 25.0187 18.1667 24.9948 18.1667Z"/>
<path fill-rule="evenodd" clip-rule="evenodd" d="M13.7038 34.6111C13.6051 34.6111 13.5049 34.6023 13.4071 34.5853L10.4684 34.0757C9.54489 33.9156 8.92562 33.046 9.08851 32.1378C9.0946 32.1033 9.10536 32.0701 9.11987 32.0388C11.1139 27.7873 11.926 23.256 11.5347 18.5709C11.5319 18.5368 11.5333 18.5018 11.5394 18.4678C11.6831 17.6668 12.3871 17.085 13.2137 17.085C13.3125 17.085 13.4127 17.0937 13.5105 17.1107L16.4487 17.6203C17.3727 17.7805 17.992 18.65 17.8291 19.5587C17.823 19.5923 17.8127 19.6255 17.7982 19.6563C15.7957 23.9557 14.9831 28.4866 15.3829 33.1238C15.3857 33.1588 15.3843 33.1938 15.3782 33.2283C15.234 34.0292 14.53 34.6111 13.7038 34.6111Z"/>
<path fill-rule="evenodd" clip-rule="evenodd" d="M14.9085 18.1667C14.8851 18.1667 14.8613 18.1644 14.8369 18.1602C14.6136 18.1216 14.4648 17.9121 14.5041 17.693L15.7927 10.5061C15.8321 10.2865 16.045 10.1397 16.2683 10.1788C16.4916 10.2175 16.6404 10.4264 16.6011 10.646L15.3125 17.833C15.2774 18.0286 15.1042 18.1667 14.9085 18.1667Z"/>
<path fill-rule="evenodd" clip-rule="evenodd" d="M19.9519 7.15078C18.1324 7.15078 16.6519 8.6063 16.6519 10.396C16.6519 12.1853 18.1324 13.6413 19.9519 13.6413C21.7718 13.6413 23.2519 12.1853 23.2519 10.396C23.2519 8.6063 21.7718 7.15078 19.9519 7.15078ZM19.9519 14.4482C17.6798 14.4482 15.8313 12.6304 15.8313 10.396C15.8313 8.16118 17.6798 6.34338 19.9519 6.34338C22.2244 6.34338 24.0729 8.16118 24.0729 10.396C24.0729 12.6304 22.2244 14.4482 19.9519 14.4482Z"/>
</svg>
