<svg width="40" height="40" viewBox="0 0 40 40" xmlns="http://www.w3.org/2000/svg">
<path fill-rule="evenodd" clip-rule="evenodd" d="M19.162 24.5739C18.2959 24.8762 17.7161 25.1286 17.5622 25.1973C13.1979 26.4896 8.99525 25.66 6.23525 24.7346C3.65922 23.8713 1.82323 22.7659 1.32734 22.4515C1.22861 22.0982 1.19417 21.75 1.22459 21.4088C1.31099 20.4448 2.12806 19.702 3.12539 19.6813C8.91793 19.5622 13.9473 18.4266 18.0737 16.3074C21.287 14.6567 22.8891 12.9308 23.3035 12.4411C23.3371 12.4014 23.3761 12.3675 23.4198 12.3395C23.8107 12.0906 24.159 11.9641 24.455 11.9641C25.6945 11.9641 26.071 14.4073 26.1339 14.8971C26.1782 15.2412 26.3745 15.5435 26.6721 15.7261C28.2843 16.7156 29.7009 17.2169 30.8833 17.2164C33.0934 17.2164 33.847 15.5165 34.0257 14.9955C34.0614 14.8912 34.1067 14.797 34.1601 14.7155C34.6155 14.0246 34.9766 13.7302 35.1995 13.6053C35.2833 13.5582 35.3745 13.5343 35.471 13.5343C35.7041 13.5343 35.919 13.672 36.0193 13.8853C36.6582 15.2459 37.6518 17.47 37.6614 17.4922L37.6785 17.5309L37.7025 17.5653C38.1363 18.1986 38.4244 18.8902 38.6086 19.5892C37.7906 21.9469 36.5817 23.4898 35.0161 24.1766C33.1281 25.004 31.3089 24.2899 31.1793 24.2364C29.695 23.5031 28.0296 23.2312 26.3855 23.2267C25.9264 20.019 24.085 17.4819 23.0075 16.2359C22.8198 16.0189 22.5467 15.8944 22.2582 15.8944C22.0939 15.8944 21.9302 15.9357 21.7851 16.0141C21.4833 16.1766 21.1499 16.3476 20.7937 16.5213C20.5163 16.6573 20.3222 16.9072 20.2603 17.2079C20.1995 17.5076 20.2801 17.812 20.4811 18.0433C21.3821 19.0769 22.8973 21.1152 23.2947 23.4977C22.8028 23.5808 22.3265 23.6786 21.8725 23.7846C21.3739 21.1454 19.8482 19.0829 18.9462 18.0544C18.7713 17.8549 18.5185 17.7405 18.2524 17.7405C18.1308 17.7405 18.0124 17.7643 17.8998 17.8104C17.598 17.9348 17.2913 18.0582 16.9873 18.1778C16.7137 18.2858 16.5073 18.5193 16.4353 18.8025C16.3633 19.0852 16.4332 19.3875 16.622 19.6109C18.0538 21.3049 18.9287 23.0159 19.162 24.5739ZM31.1451 28.8052C28.7793 28.8052 26.9547 28.2996 26.8785 28.2785L26.7867 28.2525L26.7126 28.1932C26.2049 27.7872 25.4246 27.5812 24.3942 27.5812C22.5366 27.5812 20.5521 28.2631 20.5323 28.27L20.4897 28.2843L20.4454 28.2912C18.3995 28.5876 16.4289 28.7385 14.5889 28.7385H14.5883C5.05873 28.738 1.60326 24.8029 1.46086 24.6351L1.44966 24.6218C0.585126 23.5238 0.195793 22.4152 0.29286 21.3268C0.421393 19.8899 1.63099 18.7835 3.10566 18.7533C8.75419 18.6368 13.6454 17.5367 17.6438 15.4826C20.703 13.9113 22.2011 12.3003 22.5878 11.8439C22.6817 11.7328 22.7915 11.6369 22.9147 11.5581C23.4587 11.2118 23.9771 11.0355 24.455 11.0355C26.3739 11.0355 26.9174 13.654 27.0619 14.7795C27.0699 14.8446 27.1073 14.9018 27.1638 14.9362C28.6257 15.8336 29.8774 16.2883 30.8833 16.2883C32.4283 16.2883 32.9761 15.1755 33.1398 14.6969C33.2006 14.5185 33.2806 14.3544 33.3771 14.2078C33.8251 13.5269 34.2838 13.0526 34.7393 12.7969C34.9622 12.6719 35.215 12.6058 35.471 12.6058C36.0657 12.6058 36.6139 12.9541 36.8667 13.4931C37.4337 14.7002 38.2761 16.5792 38.474 17.0208L38.4745 17.0218L38.4746 17.0221L38.4998 17.0782C40.8097 20.4956 39.4443 25.1369 39.3851 25.3333L39.3579 25.4223L39.2987 25.4943C37.5083 27.6606 34.6886 28.8052 31.1451 28.8052Z"/>
</svg>
